<svg width="20" height="20" viewBox="0 0 20 20" fill="none" xmlns="http://www.w3.org/2000/svg">
<path d="M14.2083 16.9C13.4083 18.0583 12.4916 18.0167 11.1916 18.0167C9.96662 18.0167 9.60828 17.3 8.37495 17.3C7.09163 17.3 6.67496 17.9833 5.53329 18.0167C4.11663 18.0583 2.70829 16.7167 2.04163 15.2083C0.699957 12.175 1.70829 8.64167 4.79163 8.51667C5.95829 8.46667 6.85829 9.27501 7.64996 9.27501C8.39995 9.27501 9.54162 8.28336 10.8666 8.47501C11.4333 8.55834 12.7916 8.88334 13.6666 10.15C13.5999 10.2 11.8999 11.225 11.9416 13.35C11.9833 15.4167 13.7333 16.1833 13.7916 16.2167C13.7583 16.325 13.3499 17.7667 12.5416 18.9417L14.2083 16.9ZM10.025 6.04169C10.65 5.22502 11.0416 4.13336 10.9249 3.02502C9.94162 3.10836 8.77495 3.71669 8.08329 4.51669C7.43329 5.27502 6.96662 6.41669 7.10829 7.45002C8.16663 7.53336 9.30828 6.80002 10.025 6.04169Z" fill="black"/>
</svg>
